<svg width="28" height="28" viewBox="0 0 28 28" fill="none" xmlns="http://www.w3.org/2000/svg">
<g clip-path="url(#clip0)">
<path d="M27.0684 6.41445C26.5095 5.8289 25.7376 5.48289 24.8593 5.48289H20.4411V5.42966C20.4411 4.76426 20.1749 4.12547 19.7224 3.69962C19.27 3.24715 18.6578 2.98099 17.9924 2.98099H10.0076C9.31559 2.98099 8.70342 3.24715 8.25095 3.69962C7.79848 4.15209 7.53232 4.76426 7.53232 5.42966V5.48289H3.14068C2.26236 5.48289 1.49049 5.8289 0.931559 6.41445C0.372624 6.97338 0 7.77186 0 8.62357V21.8783C0 22.7567 0.346008 23.5285 0.931559 24.0875C1.49049 24.6464 2.28897 25.019 3.14068 25.019H24.8593C25.7376 25.019 26.5095 24.673 27.0684 24.0875C27.6274 23.5285 28 22.73 28 21.8783V8.62357C28 7.74525 27.654 6.97338 27.0684 6.41445ZM26.616 21.8783H26.5894C26.5894 22.3574 26.403 22.7833 26.0837 23.1027C25.7643 23.4221 25.3384 23.6084 24.8593 23.6084H3.14068C2.6616 23.6084 2.23574 23.4221 1.91635 23.1027C1.59696 22.7833 1.41065 22.3574 1.41065 21.8783V8.62357C1.41065 8.14449 1.59696 7.71863 1.91635 7.39924C2.23574 7.07985 2.6616 6.89354 3.14068 6.89354H8.27757C8.67681 6.89354 8.9962 6.57414 8.9962 6.1749V5.40304C8.9962 5.11027 9.10266 4.84411 9.28897 4.65779C9.47529 4.47148 9.74145 4.36502 10.0342 4.36502H17.9924C18.2852 4.36502 18.5513 4.47148 18.7376 4.65779C18.924 4.84411 19.0304 5.11027 19.0304 5.40304V6.1749C19.0304 6.57414 19.3498 6.89354 19.749 6.89354H24.8859C25.365 6.89354 25.7909 7.07985 26.1103 7.39924C26.4297 7.71863 26.616 8.14449 26.616 8.62357V21.8783Z" fill="black" fill-opacity="0.5"/>
<path d="M14 8.7034C12.1901 8.7034 10.5399 9.44865 9.3688 10.6198C8.17109 11.8175 7.45245 13.441 7.45245 15.2509C7.45245 17.0608 8.1977 18.711 9.3688 19.8821C10.5665 21.0798 12.1901 21.7985 14 21.7985C15.8099 21.7985 17.4601 21.0532 18.6312 19.8821C19.8289 18.6844 20.5475 17.0608 20.5475 15.2509C20.5475 13.441 19.8023 11.7909 18.6312 10.6198C17.4601 9.44865 15.8099 8.7034 14 8.7034ZM17.6198 18.8973C16.6882 19.8023 15.4106 20.3878 14 20.3878C12.5893 20.3878 11.3118 19.8023 10.3802 18.8973C9.44865 17.9658 8.88972 16.6882 8.88972 15.2775C8.88972 13.8669 9.47527 12.5893 10.3802 11.6578C11.3118 10.7262 12.5893 10.1673 14 10.1673C15.4106 10.1673 16.6882 10.7528 17.6198 11.6578C18.5513 12.5893 19.1103 13.8669 19.1103 15.2775C19.1369 16.6882 18.5513 17.9658 17.6198 18.8973Z" fill="black" fill-opacity="0.5"/>
<path d="M23.4753 11.2851C24.1956 11.2851 24.7795 10.7012 24.7795 9.98091C24.7795 9.26063 24.1956 8.67673 23.4753 8.67673C22.755 8.67673 22.1711 9.26063 22.1711 9.98091C22.1711 10.7012 22.755 11.2851 23.4753 11.2851Z" fill="black" fill-opacity="0.5"/>
</g>
<defs>
<clipPath id="clip0">
<rect width="28" height="28" fill="white"/>
</clipPath>
</defs>
</svg>
