<svg width="35" height="35" viewBox="0 0 35 35" fill="none" xmlns="http://www.w3.org/2000/svg">
<path d="M33.9746 9.79781C33.9746 4.38662 29.5905 0 24.1821 0C19.0189 0 14.7882 3.9993 14.4164 9.07095C20.3235 9.66827 25.1635 13.9263 26.5889 19.5956H33.9746L31.5055 16.3018C33.0418 14.5715 33.9746 12.2935 33.9746 9.79781Z" fill="#9A9895"/>
<path d="M14.0669 11.0968C7.02235 10.4759 1.02539 16.0146 1.02539 23.0252C1.02539 26.0758 2.16576 28.859 4.04305 30.9735L1.02539 35H12.994C19.6036 35 24.9626 29.6389 24.9626 23.0252C24.9626 16.7999 20.2009 11.6421 14.0669 11.0968V11.0968ZM6.46563 19.7598H12.994V21.9382H6.46563V19.7598ZM19.5223 26.295H6.46563V24.1166H19.5223V26.295Z" fill="#9A9895"/>
</svg>
