<svg width="36" height="36" viewBox="0 0 36 36" fill="none" xmlns="http://www.w3.org/2000/svg">
<g clip-path="url(#clip0)">
<path d="M5.55 2.64294L9.138 12.6554H0L5.55 2.64294Z" fill="#9A9895"/>
<path d="M16.5905 2.73447L10.9475 10.9005L7.60547 1.58997H15.8075L16.5905 2.73447Z" fill="#9A9895"/>
<path d="M23.4734 12.6555H12.5264L17.9999 4.76404L23.4734 12.6555Z" fill="#9A9895"/>
<path d="M28.3952 1.58997L25.0682 10.9005L19.4102 2.73447L20.1932 1.58997H28.3952Z" fill="#9A9895"/>
<path d="M36 12.6554H26.877L30.465 2.64294L36 12.6554Z" fill="#9A9895"/>
<path d="M16.9729 34.59L16.6969 34.2541L0.337891 14.946H9.95139L16.7734 34.0246L16.9729 34.59Z" fill="#9A9895"/>
<path d="M23.6117 14.946L18.0002 30.621L12.3887 14.946H23.6117Z" fill="#9A9895"/>
<path d="M35.6623 14.946L19.3033 34.254L19.0273 34.575L19.2103 34.041L26.0488 14.946H35.6623Z" fill="#9A9895"/>
</g>
<defs>
<clipPath id="clip0">
<rect width="36" height="36" fill="white"/>
</clipPath>
</defs>
</svg>
