<svg width="35" height="35" viewBox="0 0 35 35" fill="none" xmlns="http://www.w3.org/2000/svg">
<g clip-path="url(#clip0)">
<path d="M23.4051 18.5494C21.8301 16.0925 19.1478 14.6255 16.2298 14.6255C13.3117 14.6255 10.6294 16.0925 9.05469 18.5494L5.25968 24.4697C4.63002 25.4519 4.33949 26.5867 4.41934 27.7507C4.49918 28.915 4.94218 29.9991 5.70027 30.8867C6.4589 31.7735 7.46133 32.3797 8.59914 32.6398C9.73695 32.8998 10.9033 32.7888 11.972 32.3191L12.0435 32.2873C14.7325 31.1289 17.8052 31.1396 20.4873 32.3191C21.1791 32.6232 21.9121 32.777 22.6518 32.777C23.0539 32.777 23.4585 32.7313 23.8593 32.64C24.9971 32.3802 25.9995 31.774 26.7584 30.887C27.5168 30.0002 27.9601 28.9158 28.0402 27.7513C28.1203 26.5867 27.8297 25.4521 27.2001 24.4695L23.4051 18.5494Z" fill="#9A9895"/>
<path d="M6.28186 18.5417C7.41086 18.108 8.26855 17.1983 8.69687 15.9798C9.10462 14.8204 9.07124 13.5114 8.60261 12.2938C8.1337 11.0769 7.28081 10.0836 6.20095 9.49636C5.06661 8.87979 3.82039 8.77939 2.69326 9.21385C0.42565 10.0857 -0.614962 12.8879 0.373846 15.4618C1.16372 17.5104 3.00595 18.8037 4.86848 18.8037C5.34405 18.8037 5.82097 18.7193 6.28186 18.5417Z" fill="#9A9895"/>
<path d="M13.6454 13.9034C16.4802 13.9034 18.7865 11.2758 18.7865 8.04611C18.7865 4.8156 16.4802 2.1875 13.6454 2.1875C10.8109 2.1875 8.50486 4.8156 8.50486 8.04611C8.50486 11.2758 10.8109 13.9034 13.6454 13.9034Z" fill="#9A9895"/>
<path d="M22.5241 15.3424H22.5244C22.9605 15.4871 23.4053 15.5563 23.8483 15.5563C25.9157 15.5563 27.9304 14.0516 28.6992 11.7391C29.1419 10.408 29.1128 9.00047 28.6172 7.77615C28.0986 6.49441 27.1376 5.56408 25.9109 5.15633C24.6839 4.74858 23.357 4.91867 22.1743 5.63484C21.0445 6.31897 20.1788 7.42901 19.7366 8.76015C18.8034 11.5682 20.0539 14.521 22.5241 15.3424V15.3424Z" fill="#9A9895"/>
<path d="M33.3508 14.6588L33.35 14.658C31.3951 13.2139 28.4714 13.8398 26.8321 16.054C25.1944 18.2693 25.4505 21.2475 27.4025 22.6926C28.1144 23.22 28.9555 23.4721 29.8164 23.4721C31.3169 23.4721 32.8779 22.7063 33.9215 21.298C35.5589 19.0827 35.3031 16.1045 33.3508 14.6588V14.6588Z" fill="#9A9895"/>
</g>
<defs>
<clipPath id="clip0">
<rect width="35" height="35" fill="white"/>
</clipPath>
</defs>
</svg>
