<svg width="36" height="36" viewBox="0 0 36 36" fill="none" xmlns="http://www.w3.org/2000/svg">
<g clip-path="url(#clip0)">
<path d="M35.153 13.901L32.386 13.2995C32.1454 12.5629 31.8474 11.8444 31.4956 11.1522L33.0274 8.76956C33.3009 8.34384 33.2408 7.78491 32.8832 7.42731L28.5727 3.11682C28.2151 2.75922 27.6562 2.69907 27.2304 2.97263L24.8478 4.50439C24.1556 4.15256 23.4371 3.85455 22.7005 3.61395L22.099 0.847046C21.9916 0.352661 21.5538 0 21.0479 0H14.9521C14.4462 0 14.0084 0.352661 13.901 0.847046L13.2995 3.61395C12.5629 3.85455 11.8444 4.15256 11.1522 4.50439L8.76956 2.97263C8.34384 2.69907 7.78491 2.75922 7.42731 3.11682L3.11682 7.42731C2.75922 7.78491 2.69907 8.34384 2.97263 8.76956L4.50439 11.1522C4.15256 11.8444 3.85455 12.5629 3.61395 13.2995L0.847046 13.901C0.352661 14.0087 0 14.4462 0 14.9521V21.0479C0 21.5538 0.352661 21.9913 0.847046 22.099L3.61395 22.7005C3.85455 23.4371 4.15256 24.1556 4.50439 24.8478L2.97263 27.2304C2.69907 27.6562 2.75922 28.2151 3.11682 28.5727L7.42731 32.8832C7.78491 33.2408 8.34384 33.3009 8.76956 33.0274L11.1522 31.4956C11.8444 31.8474 12.5629 32.1454 13.2995 32.386L13.901 35.153C14.0084 35.6473 14.4462 36 14.9521 36H21.0479C21.5538 36 21.9916 35.6473 22.099 35.153L22.7005 32.386C23.4371 32.1454 24.1556 31.8474 24.8478 31.4956L27.2304 33.0274C27.6562 33.3009 28.2151 33.2411 28.5727 32.8832L32.8832 28.5727C33.2408 28.2151 33.3009 27.6562 33.0274 27.2304L31.4956 24.8478C31.8474 24.1556 32.1454 23.4371 32.386 22.7005L35.153 22.099C35.6473 21.9913 36 21.5538 36 21.0479V14.9521C36 14.4462 35.6473 14.0087 35.153 13.901V13.901ZM24.4542 18C24.4542 21.5587 21.5587 24.4542 18 24.4542C14.4413 24.4542 11.5458 21.5587 11.5458 18C11.5458 14.4413 14.4413 11.5458 18 11.5458C21.5587 11.5458 24.4542 14.4413 24.4542 18V18Z" fill="#9A9895"/>
</g>
<defs>
<clipPath id="clip0">
<rect width="36" height="36" fill="white"/>
</clipPath>
</defs>
</svg>
