<svg width="22" height="22" viewBox="0 0 22 22" fill="none" xmlns="http://www.w3.org/2000/svg">
<g clip-path="url(#clip0)">
<path d="M11 0C8.62687 0 6.69565 2.00774 6.69565 4.47509V11C6.69565 13.4678 8.62687 15.4751 11 15.4751C13.3731 15.4751 15.3043 13.4678 15.3043 11V4.47509C15.3043 2.00774 13.3731 0 11 0ZM11 14.5186C9.30887 14.5186 7.90995 13.1923 7.6866 11.4783H14.3129C14.09 13.1928 12.6911 14.5186 11 14.5186ZM14.3478 10.5217H7.65217V4.47509C7.65217 2.53478 9.15391 0.956522 11 0.956522C12.8461 0.956522 14.3478 2.53478 14.3478 4.47509V10.5217Z" fill="black" fill-opacity="0.5"/>
<path d="M17.6957 8.6088C17.4317 8.6088 17.2174 8.82306 17.2174 9.08706V11.0001C17.2174 14.4283 14.4282 17.2175 11 17.2175C7.57185 17.2175 4.78263 14.4283 4.78263 11.0001V9.08706C4.78263 8.82306 4.56837 8.6088 4.30437 8.6088C4.04037 8.6088 3.82611 8.82306 3.82611 9.08706V11.0001C3.82611 14.7941 6.78894 17.9019 10.5218 18.1496V21.0436H8.13046C7.86646 21.0436 7.6522 21.2578 7.6522 21.5218C7.6522 21.7858 7.86646 22.0001 8.13046 22.0001H13.8696C14.1336 22.0001 14.3478 21.7858 14.3478 21.5218C14.3478 21.2578 14.1336 21.0436 13.8696 21.0436H11.4783V18.1496C15.2111 17.9019 18.1739 14.7941 18.1739 11.0001V9.08706C18.1739 8.82306 17.9597 8.6088 17.6957 8.6088Z" fill="black" fill-opacity="0.5"/>
</g>
<defs>
<clipPath id="clip0">
<rect width="22" height="22" fill="white"/>
</clipPath>
</defs>
</svg>
