<svg width="34" height="35" viewBox="0 0 34 35" fill="none" xmlns="http://www.w3.org/2000/svg">
<path d="M27.6667 11.8C27.6667 8.93566 26.5429 6.18864 24.5425 4.16325C22.5421 2.13785 19.829 1 17 1C14.171 1 11.4579 2.13785 9.45753 4.16325C7.45714 6.18864 6.33333 8.93566 6.33333 11.8C6.33333 24.4 1 28 1 28H33C33 28 27.6667 24.4 27.6667 11.8Z" stroke="black" stroke-opacity="0.5" stroke-width="2" stroke-linecap="round" stroke-linejoin="round"/>
<path d="M20 32C19.6951 32.6083 19.2575 33.1132 18.731 33.4642C18.2045 33.8153 17.6076 34 17 34C16.3924 34 15.7955 33.8153 15.269 33.4642C14.7425 33.1132 14.3049 32.6083 14 32" stroke="black" stroke-opacity="0.5" stroke-width="2" stroke-linecap="round" stroke-linejoin="round"/>
</svg>
