<svg width="70" height="70" viewBox="0 0 70 70" fill="none" xmlns="http://www.w3.org/2000/svg">
<circle cx="35" cy="35" r="35" fill="#BAC1A4"/>
<g clip-path="url(#clip0)">
<path d="M57.2897 34.8833C57.3068 34.7788 57.3146 34.6747 57.3154 34.5706C57.3156 34.5657 57.3164 34.561 57.3162 34.5562C57.3162 34.5519 57.3156 34.5474 57.3156 34.5431C57.3127 33.9677 57.066 33.4099 56.6004 32.9443C56.3362 32.6801 56.0026 32.4463 55.6091 32.2498L26.6517 17.7707C25.1195 17.0049 24.2414 17.4642 23.8545 17.8062C23.4673 18.1482 22.9032 18.963 23.4741 20.5775L26.3232 28.6356L17.856 32.2217C17.8353 32.2302 17.815 32.2396 17.7953 32.2496C16.7105 32.792 16.0881 33.6327 16.0883 34.5564C16.0883 35.1464 16.3421 35.7024 16.8083 36.1686C17.072 36.4323 17.4034 36.667 17.7951 36.863C17.8152 36.8729 17.8351 36.8823 17.8558 36.8909L26.3232 40.4771L23.4741 48.5348C22.9297 50.0748 23.4301 50.8867 23.7769 51.2336C24.0867 51.5434 24.9872 52.174 26.6517 51.3416L55.6093 36.8628C56.5632 36.3859 57.16 35.683 57.2897 34.8833V34.8833ZM25.3734 19.526C25.4627 19.5552 25.5735 19.5997 25.7045 19.6652L53.3692 33.4972L29.9578 33.4974C29.8899 32.7113 29.7456 31.9625 29.5243 31.3369L25.4707 19.8713C25.422 19.7332 25.3915 19.6182 25.3734 19.526V19.526ZM18.7149 34.9551C18.3736 34.7796 18.2414 34.6189 18.2104 34.5564C18.2416 34.4936 18.3736 34.3331 18.7149 34.1576L27.0303 30.6359L27.5275 32.0429C28.0012 33.3818 28.001 35.7307 27.5277 37.0696L27.0304 38.4768L18.7149 34.9551ZM25.7045 49.4476C25.5733 49.5133 25.4627 49.5575 25.3734 49.5868C25.3914 49.4943 25.4216 49.3791 25.4707 49.2407L29.5243 37.7755C29.7456 37.1498 29.8897 36.4013 29.9578 35.6149L53.3696 35.6151L25.7045 49.4476Z" fill="white" fill-opacity="0.5"/>
</g>
<defs>
<clipPath id="clip0">
<rect width="36.1421" height="36.1421" fill="white" transform="translate(32.5563 9) rotate(45)"/>
</clipPath>
</defs>
</svg>
